<?xml version="1.0" encoding="UTF-8"?>
<svg width="132px" height="148px" viewBox="0 0 132 148" version="1.1" xmlns="http://www.w3.org/2000/svg" xmlns:xlink="http://www.w3.org/1999/xlink">
    <title>gensi-bv@2x</title>
    <g id="页面-1" stroke="none" stroke-width="1" fill="none" fill-rule="evenodd">
        <g id="gensi-bv" fill="#646CFF">
            <path d="M66,20 C71.5229,20 76,15.5228 76,10 C76,4.47715 71.5229,0 66,0 C60.4772,0 56,4.47715 56,10 C56,11.0523 56.1625,12.0667 56.4639,13.0194 L14.0055,37.5327 C12.9433,36.5797 11.5394,36 10,36 C6.68629,36 4,38.6863 4,42 C4,44.6124 5.66962,46.8349 8,47.6586 L8,64.2 C3.43552,65.1266 0,69.1621 0,74 C0,79.5229 4.47715,84 10,84 C13.0912,84 15.8548,82.5974 17.6891,80.394 L60.026,104.837 C60.0088,105.023 60,105.21 60,105.4 C60,108.012 61.6696,110.235 64,111.059 L64,127.4 C61.6637,127.874 59.6231,129.163 58.1876,130.957 L15.972,106.584 C15.9905,106.392 16,106.197 16,106 C16,102.686 13.3137,100 10,100 C6.68629,100 4,102.686 4,106 C4,109.314 6.68629,112 10,112 C11.6693,112 13.1793,111.318 14.2669,110.218 L56.3626,134.522 C56.1263,135.374 56,136.272 56,137.2 C56,142.723 60.4772,147.2 66,147.2 C71.5229,147.2 76,142.723 76,137.2 C76,136.708 75.9644,136.224 75.8958,135.751 L90.0932,127.554 C91.1429,128.455 92.5078,129 94,129 C97.3137,129 100,126.314 100,123 C100,122.622 99.965,122.252 99.8981,121.893 L115.021,113.162 C116.823,114.918 119.285,116 122,116 C127.523,116 132,111.523 132,106 C132,100.477 127.523,96 122,96 C116.477,96 112,100.477 112,106 C112,107.362 112.272,108.661 112.766,109.845 L97.8913,118.433 C97.3385,117.961 96.699,117.588 96,117.341 L96,63.6586 C98.3304,62.8349 100,60.6124 100,58 C100,57.671 99.9735,57.3482 99.9226,57.0336 L114.502,48.6164 C116.334,50.6914 119.014,52 122,52 C127.523,52 132,47.5228 132,42 C132,36.4772 127.523,32 122,32 C119.153,32 116.583,33.1901 114.762,35.1001 L99.974,26.5623 C99.9912,26.3772 100,26.1896 100,26 C100,22.6863 97.3137,20 94,20 C90.6863,20 88,22.6863 88,26 C88,26.3219 88.0254,26.6379 88.0742,26.9461 L70.0361,37.3604 C68.9704,36.3909 67.5542,35.8 66,35.8 C62.6863,35.8 60,38.4863 60,41.8 C60,45.1137 62.6863,47.8 66,47.8 C69.3137,47.8 72,45.1137 72,41.8 C72,41.489 71.9763,41.1835 71.9307,40.8853 L89.987,30.4605 C91.05,31.4176 92.457,32 94,32 C95.6765,32 97.1925,31.3124 98.2812,30.2038 L112.633,38.49 C112.224,39.5821 112,40.7649 112,42 C112,43.1005 112.178,44.1594 112.506,45.1497 L97.998,53.526 C96.9367,52.577 95.5357,52 94,52 C90.6863,52 88,54.6863 88,58 C88,58.4201 88.0432,58.8302 88.1253,59.2259 L73.8843,67.448 C72.0541,65.1058 69.2029,63.6 66,63.6 C62.8388,63.6 60.0202,65.0669 58.1876,67.357 L15.9242,42.9562 C15.9741,42.6448 16,42.3255 16,42 C16,41.6746 15.9741,41.3552 15.9242,41.0438 L58.412,16.5135 C60.2459,18.648 62.9651,20 66,20 Z M88.0982,124.087 C88.0337,123.734 88,123.371 88,123 C88,120.388 89.6696,118.165 92,117.341 L92,63.6586 C91.3402,63.4254 90.7334,63.0801 90.2024,62.6455 L75.6684,71.0367 C75.8848,71.8548 76,72.7139 76,73.6 C76,79.1229 71.5229,83.6 66,83.6 C60.4772,83.6 56,79.1229 56,73.6 C56,72.6725 56.1263,71.7744 56.3626,70.9221 L14.0055,46.4673 C13.4272,46.9861 12.7476,47.3943 12,47.6586 L12,64.2 C16.5645,65.1266 20,69.1621 20,74 C20,74.9969 19.8541,75.9598 19.5825,76.8684 L61.7191,101.196 C62.8078,100.088 64.3236,99.4 66,99.4 C69.3137,99.4 72,102.086 72,105.4 C72,108.012 70.3304,110.235 68,111.059 L68,127.4 C70.742,127.957 73.0766,129.635 74.5038,131.936 L88.0982,124.087 Z" id="形状"></path>
        </g>
    </g>
</svg>